<svg width="131" height="80" viewBox="0 0 131 80" fill="none" xmlns="http://www.w3.org/2000/svg">
<g clip-path="url(#clip0_927_26297)">
<path d="M124.252 18.7315C124.252 9.99006 117.228 2.80957 108.486 2.80957C99.7446 2.80957 92.7202 9.99006 92.7202 18.7315C92.7202 18.7315 92.7202 18.7315 92.7202 18.8876C92.7202 20.6047 94.1251 22.0096 95.8422 22.0096C97.5592 22.0096 98.9641 20.6047 98.9641 18.8876C98.9641 18.8876 98.9641 18.8876 98.9641 18.7315C98.9641 13.5803 103.179 9.36567 108.33 9.36567C113.481 9.36567 117.696 13.5803 117.696 18.7315C117.696 18.7315 117.696 18.7315 117.696 18.8876C117.696 20.6047 119.101 22.0096 120.818 22.0096C122.847 22.0096 124.252 20.4486 124.252 18.7315Z" fill="#00C6FF"/>
<path d="M111.764 15.1415C111.764 13.4244 110.359 11.8634 108.486 11.8634C106.769 11.8634 105.208 13.2683 105.208 15.1415C105.208 15.2976 105.208 15.4537 105.208 15.6098C105.208 20.761 100.993 24.9756 95.8422 24.9756C90.691 24.9756 86.4763 20.761 86.4763 15.6098C86.4763 10.4585 90.691 6.2439 95.8422 6.2439C95.8422 6.2439 95.8422 6.2439 95.9983 6.2439C97.7153 6.2439 99.1202 4.83902 99.1202 3.12195C99.1202 1.40488 97.7153 0 95.9983 0C87.2568 0 80.2324 7.02439 80.2324 15.7659C80.2324 24.5073 87.2568 31.5317 95.9983 31.5317C104.584 31.5317 111.764 24.5073 111.764 15.922C111.764 15.4537 111.764 15.2976 111.764 15.1415Z" fill="#8435D4"/>
<path d="M25.4422 44.9562H38.8666C38.3983 46.5172 37.6178 47.766 36.5251 49.0148C35.4324 50.2636 34.0275 51.2001 32.4666 51.8245C30.9056 52.4489 29.1885 52.7611 27.1592 52.7611C25.13 52.7611 23.2568 52.4489 21.5397 51.6684C19.8227 50.8879 18.2617 49.9514 17.0129 48.5465C15.7641 47.2977 14.6714 45.7367 14.047 43.8636C13.2666 42.1465 12.9544 40.1172 12.9544 38.0879C12.9544 36.0587 13.2666 34.0294 14.047 32.3123C14.6714 30.5953 15.7641 29.0343 17.0129 27.7855C18.2617 26.5367 19.6666 25.444 21.3836 24.8197C22.6324 24.1953 24.1934 23.8831 25.5983 23.727V12.644C22.3202 12.8001 19.3544 13.4245 16.5446 14.5172C13.2666 15.766 10.4568 17.6392 8.11533 19.9806C5.77387 22.3221 3.9007 24.9758 2.49582 28.0977C1.09094 31.2197 0.466553 34.4977 0.466553 38.0879C0.466553 41.6782 1.09094 45.1123 2.49582 48.0782C3.9007 51.2001 5.77387 53.8538 8.11533 56.1953C10.6129 58.5367 13.4226 60.4099 16.5446 61.6587C19.8226 62.9075 23.2568 63.688 27.0031 63.688C30.5934 63.688 34.0275 63.0636 37.1495 61.8148C40.2714 60.566 42.9251 58.6928 45.1105 56.3514C47.2958 54.0099 49.169 51.2001 50.4178 48.0782C51.6666 44.9562 52.2909 41.5221 52.2909 37.7757V34.1855H25.4422V44.9562Z" fill="#0E0E0E"/>
<path d="M89.5982 34.3416V42.1465L66.4957 12.644H54.6323V63.5319H66.4957V32.9367L90.3787 63.5319H101.305V34.3416H89.5982Z" fill="#0E0E0E"/>
<path d="M106.925 63.5319V55.8831H103.647V54.166H111.92V55.8831H108.798V63.5319H106.925Z" fill="#8435D4"/>
<path d="M113.013 63.5319V54.166H120.349V55.8831H115.042V57.9124H118.476V59.6294H115.042V61.8148H120.349V63.5319H113.013Z" fill="#8435D4"/>
<path d="M128.623 64L127.998 63.2195C127.686 63.3756 127.374 63.5317 126.906 63.5317C126.593 63.6878 126.281 63.6878 125.813 63.6878C125.188 63.6878 124.408 63.5317 123.784 63.3756C123.159 63.0634 122.691 62.7512 122.223 62.2829C121.754 61.8146 121.442 61.3463 121.13 60.722C120.818 60.0976 120.818 59.4732 120.818 58.8488C120.818 58.2244 120.974 57.6 121.13 56.9756C121.442 56.3512 121.754 55.8829 122.223 55.4146C122.691 54.9464 123.159 54.6342 123.784 54.322C124.408 54.0098 125.032 54.0098 125.813 54.0098C126.437 54.0098 127.218 54.1659 127.842 54.322C128.467 54.6342 128.935 54.9464 129.403 55.4146C129.871 55.8829 130.184 56.3512 130.496 56.9756C130.808 57.6 130.808 58.2244 130.808 58.8488C130.808 59.4732 130.652 60.0976 130.496 60.722C130.184 61.3463 129.871 61.8146 129.403 62.2829L130.34 63.5317L128.623 64ZM125.813 61.9707C125.969 61.9707 126.125 61.9707 126.281 61.9707C126.437 61.9707 126.593 61.8146 126.749 61.8146L125.813 60.5659L127.53 59.9415L128.154 60.8781C128.31 60.5659 128.467 60.2537 128.623 59.9415C128.779 59.6293 128.779 59.3171 128.779 58.8488C128.779 58.3805 128.779 58.0683 128.623 57.6C128.467 57.2878 128.31 56.9756 127.998 56.6634C127.686 56.3512 127.374 56.1951 127.062 56.039C126.749 55.8829 126.281 55.7268 125.813 55.7268C125.345 55.7268 125.032 55.8829 124.564 56.039C124.252 56.1951 123.94 56.3512 123.628 56.6634C123.315 56.9756 123.159 57.2878 123.003 57.6C122.847 57.9122 122.847 58.3805 122.847 58.8488C122.847 59.3171 122.847 59.6293 123.003 60.0976C123.159 60.4098 123.315 60.8781 123.628 61.0342C123.94 61.3464 124.252 61.5025 124.564 61.6585C125.032 61.8146 125.501 61.9707 125.813 61.9707Z" fill="#8435D4"/>
<path d="M53.6666 79.4111V69.4785H54.3191V78.7586H60.4092V79.3386H53.6666V79.4111Z" fill="#0E0E0E"/>
<path d="M62.0767 70.9286C61.9317 70.9286 61.7867 70.8561 61.7142 70.7836C61.6417 70.7111 61.5692 70.5661 61.5692 70.4211C61.5692 70.2761 61.6417 70.1311 61.7142 70.0586C61.7867 69.9861 61.9317 69.9136 62.0767 69.9136C62.2217 69.9136 62.3667 69.9861 62.4392 70.0586C62.5117 70.1311 62.5842 70.2761 62.5842 70.4211C62.5842 70.5661 62.5117 70.7111 62.4392 70.7836C62.3667 70.8561 62.2942 70.9286 62.0767 70.9286ZM61.7867 79.4112V72.4511H62.4392V79.4112H61.7867Z" fill="#0E0E0E"/>
<path d="M64.3241 79.4111V69.4785L64.9766 69.3335V75.6411L68.8916 72.3785H69.7617L65.6291 75.7136L69.9067 79.3386H68.9641L64.9041 75.9311V79.3386H64.3241V79.4111Z" fill="#0E0E0E"/>
<path d="M73.5318 79.5562C72.8793 79.5562 72.2993 79.4112 71.7918 79.0487C71.2843 78.7587 70.8493 78.3237 70.5593 77.7437C70.2693 77.1637 70.1243 76.5837 70.1243 75.9312C70.1243 75.2787 70.2693 74.6262 70.5593 74.1187C70.8493 73.5387 71.2843 73.1037 71.7918 72.8137C72.2993 72.5237 72.8793 72.3062 73.5318 72.3062C74.1118 72.3062 74.6918 72.4512 75.1268 72.8137C75.6343 73.1037 75.9968 73.5387 76.2868 74.1187C76.5768 74.6262 76.7218 75.2787 76.7218 75.8587V76.1487H70.7768C70.7768 76.6562 70.9218 77.1637 71.2118 77.5987C71.5018 78.0337 71.7918 78.3962 72.2268 78.6137C72.6618 78.9037 73.0968 78.9762 73.6043 78.9762C73.9668 78.9762 74.4018 78.9037 74.7643 78.7587C75.1268 78.6137 75.4893 78.4687 75.7793 78.2512L76.1418 78.7587C75.7793 79.0487 75.3443 79.2662 74.9093 79.3387C74.4743 79.4112 73.9668 79.5562 73.5318 79.5562ZM70.7043 75.4962H75.9243C75.8518 74.9887 75.7068 74.5537 75.4893 74.1912C75.2718 73.8287 74.9818 73.4662 74.6193 73.2487C74.2568 73.0312 73.8218 72.8862 73.3868 72.8862C72.8793 72.8862 72.4443 73.0312 72.0818 73.2487C71.7193 73.4662 71.3568 73.7562 71.1393 74.1912C70.9218 74.6262 70.7768 74.9887 70.7043 75.4962Z" fill="#0E0E0E"/>
<path d="M81.2893 79.4112V72.4512H81.9418V73.3937C82.5218 72.6687 83.2468 72.3062 84.2618 72.3062C84.7693 72.3062 85.2768 72.4512 85.6393 72.6687C86.0744 72.8862 86.3644 73.1762 86.5819 73.6112C86.7994 74.0462 86.9444 74.4812 86.9444 74.9887V79.4112H86.2919V75.1337C86.2919 74.4087 86.0744 73.9012 85.7118 73.4662C85.3493 73.0312 84.7693 72.8862 84.1168 72.8862C83.6093 72.8862 83.2468 73.0312 82.8118 73.2487C82.4493 73.4662 82.1593 73.7562 81.9418 74.1912V79.4112H81.2893Z" fill="#0E0E0E"/>
<path d="M91.8745 79.5562C91.2219 79.5562 90.6419 79.4112 90.1344 79.0487C89.6269 78.7587 89.1919 78.3237 88.9019 77.7437C88.6119 77.1637 88.4669 76.5837 88.4669 75.9312C88.4669 75.2787 88.6119 74.6262 88.9019 74.1187C89.1919 73.5387 89.6269 73.1037 90.1344 72.8137C90.6419 72.5237 91.2219 72.3062 91.8745 72.3062C92.527 72.3062 93.107 72.4512 93.6145 72.8137C94.122 73.1037 94.557 73.5387 94.847 74.1187C95.137 74.6987 95.282 75.2787 95.282 75.9312C95.282 76.5837 95.137 77.2362 94.847 77.7437C94.557 78.3237 94.122 78.7587 93.6145 79.0487C93.107 79.4112 92.527 79.5562 91.8745 79.5562ZM91.8745 78.9762C92.382 78.9762 92.8895 78.8312 93.3245 78.5412C93.7595 78.2512 94.122 77.8887 94.3395 77.4537C94.557 77.0187 94.702 76.5112 94.702 75.9312C94.702 75.3512 94.557 74.8437 94.3395 74.4087C94.122 73.9737 93.7595 73.6112 93.3245 73.3212C92.8895 73.0312 92.382 72.8862 91.8745 72.8862C91.3669 72.8862 90.8594 73.0312 90.4244 73.3212C89.9894 73.6112 89.6269 73.9737 89.4094 74.4087C89.1919 74.8437 89.0469 75.3512 89.0469 75.9312C89.0469 76.5112 89.1919 77.0187 89.4094 77.4537C89.6269 77.8887 89.9894 78.2512 90.4244 78.5412C90.8594 78.8312 91.3669 78.9762 91.8745 78.9762Z" fill="#0E0E0E"/>
<path d="M103.185 79.5562C102.532 79.5562 101.952 79.4112 101.444 79.0487C100.937 78.7587 100.502 78.3237 100.212 77.7437C99.922 77.1637 99.777 76.5837 99.777 75.9312C99.777 75.2787 99.922 74.6262 100.212 74.1187C100.502 73.5387 100.937 73.1037 101.444 72.8137C101.952 72.5237 102.532 72.3062 103.185 72.3062C103.837 72.3062 104.417 72.4512 104.925 72.8137C105.432 73.1037 105.867 73.5387 106.157 74.1187C106.447 74.6987 106.592 75.2787 106.592 75.9312C106.592 76.5837 106.447 77.2362 106.157 77.7437C105.867 78.3237 105.432 78.7587 104.925 79.0487C104.417 79.4112 103.837 79.5562 103.185 79.5562ZM103.185 78.9762C103.692 78.9762 104.2 78.8312 104.635 78.5412C105.07 78.2512 105.432 77.8887 105.65 77.4537C105.867 77.0187 106.012 76.5112 106.012 75.9312C106.012 75.3512 105.867 74.8437 105.65 74.4087C105.432 73.9737 105.07 73.6112 104.635 73.3212C104.2 73.0312 103.692 72.8862 103.185 72.8862C102.677 72.8862 102.17 73.0312 101.735 73.3212C101.3 73.6112 100.937 73.9737 100.719 74.4087C100.502 74.8437 100.357 75.3512 100.357 75.9312C100.357 76.5112 100.502 77.0187 100.719 77.4537C100.937 77.8887 101.3 78.2512 101.735 78.5412C102.17 78.8312 102.677 78.9762 103.185 78.9762Z" fill="#0E0E0E"/>
<path d="M110.29 79.556C109.782 79.556 109.347 79.411 109.057 79.1935C108.767 78.9035 108.622 78.541 108.622 78.106V73.1034H107.1V72.5234H108.622V70.7834L109.275 70.5659V72.5234H111.45V73.1034H109.275V77.961C109.275 78.3235 109.347 78.6135 109.565 78.831C109.71 78.976 110 79.121 110.435 79.121C110.652 79.121 110.87 79.121 111.015 79.0485C111.16 79.0485 111.305 78.976 111.45 78.9035V79.4835C111.305 79.556 111.087 79.6285 110.87 79.6285C110.652 79.6285 110.507 79.556 110.29 79.556Z" fill="#0E0E0E"/>
<path d="M112.61 79.4111V69.4785L113.262 69.3335V73.3935C113.842 72.6685 114.567 72.306 115.582 72.306C116.09 72.306 116.597 72.451 116.96 72.6685C117.395 72.886 117.685 73.176 117.902 73.611C118.12 74.046 118.265 74.481 118.265 74.9886V79.4111H117.612V75.1336C117.612 74.4085 117.395 73.901 117.032 73.466C116.67 73.031 116.09 72.886 115.437 72.886C114.93 72.886 114.567 73.031 114.132 73.2485C113.77 73.466 113.48 73.756 113.262 74.191V79.4111H112.61Z" fill="#0E0E0E"/>
<path d="M123.195 79.5562C122.542 79.5562 121.962 79.4112 121.455 79.0487C120.947 78.7587 120.512 78.3237 120.222 77.7437C119.932 77.1637 119.787 76.5837 119.787 75.9312C119.787 75.2787 119.932 74.6262 120.222 74.1187C120.512 73.5387 120.947 73.1037 121.455 72.8137C121.962 72.5237 122.542 72.3062 123.195 72.3062C123.775 72.3062 124.355 72.4512 124.79 72.8137C125.297 73.1037 125.66 73.5387 125.95 74.1187C126.24 74.6262 126.385 75.2787 126.385 75.8587V76.1487H120.44C120.44 76.6562 120.585 77.1637 120.875 77.5987C121.165 78.0337 121.455 78.3962 121.89 78.6137C122.325 78.9037 122.76 78.9762 123.267 78.9762C123.63 78.9762 124.065 78.9037 124.427 78.7587C124.79 78.6137 125.152 78.4687 125.442 78.2512L125.805 78.7587C125.442 79.0487 125.007 79.2662 124.572 79.3387C124.137 79.4112 123.702 79.5562 123.195 79.5562ZM120.44 75.4962H125.66C125.587 74.9887 125.442 74.5537 125.225 74.1912C125.007 73.8287 124.717 73.4662 124.355 73.2487C123.992 73.0312 123.557 72.8862 123.122 72.8862C122.615 72.8862 122.18 73.0312 121.817 73.2487C121.455 73.4662 121.092 73.7562 120.875 74.1912C120.657 74.6262 120.44 74.9887 120.44 75.4962Z" fill="#0E0E0E"/>
<path d="M127.835 79.411V72.4509H128.487V73.5384C128.705 73.1759 128.922 72.8134 129.285 72.5959C129.647 72.3784 130.01 72.2334 130.445 72.2334C130.662 72.2334 130.807 72.2334 131.025 72.3059V72.9584C130.952 72.8859 130.807 72.8859 130.735 72.8859C130.662 72.8859 130.517 72.8859 130.445 72.8859C130.01 72.8859 129.575 73.0309 129.285 73.3209C128.922 73.6109 128.705 73.9734 128.487 74.5534V79.411H127.835Z" fill="#0E0E0E"/>
</g>
<defs>
<clipPath id="clip0_927_26297">
<rect width="130.667" height="80" fill="white" transform="translate(0.333252)"/>
</clipPath>
</defs>
</svg>
