<svg width="56" height="64" viewBox="0 0 56 64" fill="none" xmlns="http://www.w3.org/2000/svg">
<g clip-path="url(#clip0_208_18176)">
<path fill-rule="evenodd" clip-rule="evenodd" d="M6 0.000488281C3.79086 0.000488281 2 1.79135 2 4.00049V60.0001C2 62.2092 3.79086 64.0001 6 64.0001H49.8397C52.0488 64.0001 53.8397 62.2092 53.8397 60.0001V16.0005L37.8398 0.000585934H49.8679C49.8585 0.000520868 49.8491 0.000488281 49.8397 0.000488281H6Z" fill="#F6AD00"/>
<path d="M13.4259 46.3794L19.2575 37.8083C19.3321 37.6984 19.43 37.6063 19.5442 37.5385C19.6584 37.4707 19.7861 37.4287 19.9183 37.4157C20.0505 37.4027 20.1839 37.4189 20.3092 37.4632C20.4344 37.5075 20.5484 37.5787 20.643 37.6719L24.497 41.4479L32.953 28.194C33.0367 28.0624 33.1529 27.9547 33.2904 27.8812C33.4279 27.8077 33.5821 27.771 33.738 27.7745C33.8939 27.778 34.0462 27.8216 34.1803 27.9012C34.3143 27.9808 34.4256 28.0936 34.5034 28.2288L45.0097 46.4366C45.0895 46.5745 45.1315 46.7309 45.1316 46.8902C45.1317 47.0495 45.0898 47.206 45.0101 47.3439C44.9305 47.4818 44.8159 47.5964 44.6779 47.6759C44.5399 47.7554 44.3834 47.7972 44.2241 47.797H14.1759C14.0108 47.7974 13.8488 47.7526 13.7072 47.6676C13.5657 47.5826 13.4501 47.4606 13.3729 47.3147C13.2957 47.1688 13.2597 47.0046 13.269 46.8397C13.2783 46.6749 13.3324 46.5158 13.4255 46.3794H13.4259Z" fill="white"/>
<path d="M15.1723 26.972C15.1723 28.1844 15.6539 29.3472 16.5113 30.2046C17.3686 31.0619 18.5314 31.5435 19.7439 31.5435C20.9563 31.5435 22.1191 31.0619 22.9764 30.2046C23.8338 29.3472 24.3154 28.1844 24.3154 26.972C24.3154 25.7595 23.8338 24.5967 22.9764 23.7394C22.1191 22.882 20.9563 22.4004 19.7439 22.4004C18.5314 22.4004 17.3686 22.882 16.5113 23.7394C15.6539 24.5967 15.1723 25.7595 15.1723 26.972Z" fill="white"/>
<path d="M41.8399 16L53.8398 16L37.8399 9.5876e-05L37.8399 12C37.8399 14.2091 39.6308 16 41.8399 16Z" fill="#FBDE99"/>
</g>
<defs>
<clipPath id="clip0_208_18176">
<rect width="56" height="64" fill="white"/>
</clipPath>
</defs>
</svg>
