<svg width="56" height="64" viewBox="0 0 56 64" fill="none" xmlns="http://www.w3.org/2000/svg">
<g clip-path="url(#clip0_208_18169)">
<path fill-rule="evenodd" clip-rule="evenodd" d="M6 0.000488281C3.79086 0.000488281 2 1.79135 2 4.00049V60.0001C2 62.2092 3.79086 64.0001 6 64.0001H49.8397C52.0488 64.0001 53.8397 62.2092 53.8397 60.0001V4.00049C53.8397 3.9716 53.8394 3.94279 53.8388 3.91405V16.0004L37.8389 0.000488281H6Z" fill="#7C8EEE"/>
<path d="M40.1331 36.2062L21.4728 47.3302C20.226 48.0814 18.6396 47.1794 18.6396 45.7142V23.4663C18.6396 22.0383 20.226 21.1367 21.4728 21.8503L40.1327 32.9743C41.3415 33.7262 41.3415 35.4922 40.1327 36.2062H40.1331Z" fill="white"/>
<path d="M41.839 16L53.8389 16L37.839 9.5876e-05L37.839 12C37.839 14.2091 39.6298 16 41.839 16Z" fill="#CAD1F8"/>
</g>
<defs>
<clipPath id="clip0_208_18169">
<rect width="56" height="64" fill="white"/>
</clipPath>
</defs>
</svg>
