<svg width="56" height="64" viewBox="0 0 56 64" fill="none" xmlns="http://www.w3.org/2000/svg">
<g clip-path="url(#clip0_208_18211)">
<path fill-rule="evenodd" clip-rule="evenodd" d="M6 0.000488281C3.79086 0.000488281 2 1.79135 2 4.00049V60.0001C2 62.2092 3.79086 64.0001 6 64.0001H49.8397C52.0488 64.0001 53.8397 62.2092 53.8397 60.0001V16.0005L37.8398 0.000585934H49.8679C49.8585 0.000520868 49.8491 0.000488281 49.8397 0.000488281H6Z" fill="#F16C00"/>
<path d="M41.4073 31.9373C41.3124 32.4095 41.1255 32.8584 40.8573 33.2584C40.6389 33.5904 40.4173 33.8128 40.1953 33.7C39.9769 33.7 39.8641 32.2661 39.7581 32.0437C39.5888 31.6581 39.4774 31.2497 39.4273 30.8317C39.3177 29.9493 38.9869 29.1725 38.4337 28.8437C37.8841 28.4025 37.1161 28.0705 36.1229 27.8477C35.0445 27.6382 34.0277 27.1866 33.1493 26.5269C32.2689 25.8629 31.2789 25.3121 30.7293 24.6481C30.1761 24.0973 29.7357 23.9841 29.5173 24.0973C29.1861 24.2069 29.0769 24.5389 29.0769 24.8705V45.4004C29.0769 45.9548 28.9677 46.6152 28.7457 47.2792C28.5273 47.9432 28.4145 48.6032 27.8649 49.264C27.3153 49.9279 26.5442 50.3691 25.5542 50.8107C24.5606 51.2523 23.3522 51.4747 22.0278 51.5839C20.6623 51.6701 19.2976 51.4039 18.0646 50.8107C17.0037 50.3233 16.064 49.6068 15.313 48.7128C14.651 47.83 14.3198 46.9472 14.3198 45.8416C14.3198 44.8496 14.7638 43.8568 15.7534 42.9736C16.6342 42.0908 17.6242 41.4272 18.7266 41.0952C19.8262 40.7632 20.8194 40.5444 21.8094 40.5444C22.8026 40.5444 24.3422 40.5444 25.1134 40.7664C25.8818 40.9856 26.435 41.0984 26.8749 41.208V21.6681C26.8749 21.0041 27.0937 20.4561 27.4249 20.0149C27.7557 19.5733 28.3053 19.3509 28.8549 19.2417C29.4081 19.1321 29.8485 19.2417 30.1793 19.5737C30.5105 19.7925 30.1793 20.2373 30.6165 20.6753C30.9477 21.1169 31.3881 21.6713 31.9409 22.3317C32.4905 22.9957 33.1493 23.5465 34.0301 24.0977C34.8017 24.6485 35.4637 24.9805 36.0133 25.3125C36.5633 25.5317 37.1161 25.7541 37.5565 25.9765C37.9965 26.1953 38.5465 26.4145 38.9869 26.7465C39.4269 27.0785 39.9801 27.5197 40.5265 28.1837C41.0793 28.8477 41.4073 29.3953 41.5197 30.0589C41.5197 30.7229 41.5197 31.3833 41.4073 31.9345V31.9377V31.9373Z" fill="white"/>
<path d="M41.8399 16L53.8398 16L37.8399 9.5876e-05L37.8399 12C37.8399 14.2091 39.6308 16 41.8399 16Z" fill="#F9C499"/>
</g>
<defs>
<clipPath id="clip0_208_18211">
<rect width="56" height="64" fill="white"/>
</clipPath>
</defs>
</svg>
