<svg width="56" height="64" viewBox="0 0 56 64" fill="none" xmlns="http://www.w3.org/2000/svg">
<g clip-path="url(#clip0_208_18204)">
<path fill-rule="evenodd" clip-rule="evenodd" d="M6 0C3.79086 0 2 1.79086 2 4V60C2 62.2091 3.79086 64 6 64H49.84C52.0491 64 53.84 62.2091 53.84 60V16L37.84 0H6Z" fill="#FA4E4E"/>
<path d="M38.314 43.102C36.1544 42.9416 34.0752 42.1396 32.3956 40.696C29.1164 41.4176 25.9968 42.46 22.8776 43.7436C20.3984 48.1544 18.0788 50.4 16.0792 50.4C15.6792 50.4 15.1996 50.32 14.8796 50.0792C13.9996 49.6784 13.52 48.796 13.52 47.914C13.52 47.192 13.68 45.1872 21.278 41.8988C23.038 38.6908 24.3972 35.4028 25.5172 31.9544C24.5572 30.0296 22.478 25.2976 23.9172 22.892C24.3972 22.0096 25.3572 21.5284 26.3972 21.6088C27.1968 21.6088 27.9964 22.0096 28.4764 22.6512C29.5164 24.0948 29.4364 27.1424 28.0764 31.6336C29.3564 34.0361 31.0329 36.2053 33.0352 38.0496C34.7152 37.7284 36.3944 37.488 38.074 37.488C41.8332 37.568 42.3932 39.3324 42.3132 40.3752C42.3132 43.102 39.6736 43.102 38.314 43.102V43.102ZM15.9196 48.074L16.1596 47.994C17.2792 47.5932 18.1588 46.7912 18.7988 45.7484C17.5988 46.2296 16.6392 47.0316 15.9196 48.0744V48.074ZM26.5568 24.0148H26.3168C26.2368 24.0148 26.0768 24.0148 25.9968 24.0948C25.6768 25.458 25.9168 26.9016 26.4768 28.1848C26.9568 26.8216 26.9568 25.378 26.5568 24.0148V24.0148ZM27.1168 35.6436L27.0368 35.8036L26.9568 35.7236C26.2368 37.5684 25.4368 39.4128 24.5572 41.1772L24.7172 41.0972V41.2572C26.4958 40.6123 28.3121 40.0767 30.156 39.6532L30.076 39.5732H30.316C29.116 38.37 27.9964 37.0068 27.1168 35.6436V35.6436ZM37.994 39.894C37.274 39.894 36.6344 39.894 35.9144 40.054C36.7144 40.4552 37.5144 40.6156 38.314 40.696C38.874 40.776 39.434 40.696 39.9136 40.5356C39.9136 40.2948 39.5936 39.894 37.994 39.894Z" fill="white"/>
<path d="M41.8403 16L53.8403 16L37.8403 -1.39876e-06L37.8403 12C37.8403 14.2091 39.6312 16 41.8403 16Z" fill="#FDB8B8"/>
</g>
<defs>
<clipPath id="clip0_208_18204">
<rect width="56" height="64" fill="white"/>
</clipPath>
</defs>
</svg>
