<svg xmlns="http://www.w3.org/2000/svg" width="56" height="64" viewBox="0 0 56 64">
  <rect width="56" height="64" fill="#FFFFFF"/>
  <path fill="#F6AD00" d="M6 0h43.84c2.209 0 4 1.792 4 4v56c0 2.209-1.791 4-4 4H6c-2.21 0-4-1.791-4-4V16h14.84C22.849 16 .17 0 0 0h6z"/>
  <path fill="#FFFFFF" d="M13.426 46.379l5.832-8.571 4.78 6.777 8.456-13.253 11.453 18.208H14.175c-.105-.128-.214-.252-.324-.37-.108-.117-.222-.228-.337-.335-.216-.198-.44-.377-.67-.537-.233-.163-.478-.305-.732-.422-.262-.122-.534-.211-.813-.274-.283-.065-.573-.1-.865-.1h-.001z"/>
  <path fill="#FFFFFF" d="M15.172 26.972c0 1.212.482 2.375 1.34 3.233.859.857 2.022 1.339 3.234 1.339 1.212 0 2.375-.482 3.232-1.339.858-.858 1.34-2.021 1.34-3.233s-.482-2.375-1.34-3.233c-.857-.857-2.02-1.339-3.232-1.339-1.212 0-2.375.482-3.234 1.339-.858.858-1.34 2.021-1.34 3.233z"/>
  <path fill="#FBDE99" d="M41.84 16H53.84V0H37.84L41.84 16z"/>
</svg>
