<svg width="56" height="64" viewBox="0 0 56 64" fill="none" xmlns="http://www.w3.org/2000/svg">
<path fill-rule="evenodd" clip-rule="evenodd" d="M6 0C3.79086 0 2 1.79086 2 4V60C2 62.2091 3.79086 64 6 64H49.84C52.0491 64 53.84 62.2091 53.84 60V4C53.84 3.98793 53.84 3.97587 53.8398 3.96382V16L37.8398 0H6Z" fill="#FF9333"/>
<path d="M23.5834 48V38.1848H30.5758C36.063 38.1848 38.8398 35.7984 38.8398 31.0588C38.8398 26.3528 36.0962 24 30.6094 24H20.8398V48H23.5834ZM30.4422 35.7984H23.5834V26.3864H30.4422C32.349 26.3864 33.7542 26.7564 34.691 27.5632C35.6278 28.2688 36.0962 29.4452 36.0962 31.0592C36.0962 32.6724 35.6282 33.8488 34.7242 34.622C33.7878 35.3948 32.3826 35.798 30.4422 35.798V35.7984Z" fill="white"/>
<path d="M41.8398 16L53.8398 16L37.8398 -1.39876e-06L37.8398 12C37.8398 14.2091 39.6307 16 41.8398 16Z" fill="#FFD3AD"/>
</svg>
