<svg width="56" height="64" viewBox="0 0 56 64" fill="none" xmlns="http://www.w3.org/2000/svg">
<path fill-rule="evenodd" clip-rule="evenodd" d="M6 0C3.79086 0 2 1.79086 2 4V60C2 62.2091 3.79086 64 6 64H49.84C52.0491 64 53.84 62.2091 53.84 60V4C53.84 3.98793 53.84 3.97587 53.8398 3.96382V16L37.8398 0H6Z" fill="#8289AD"/>
<path d="M29.2769 48V26.3864H37.7201V24H18.1201V26.3864H26.5633V48H29.2769Z" fill="white"/>
<path d="M41.8398 16L53.8398 16L37.8398 -1.39876e-06L37.8398 12C37.8398 14.2091 39.6307 16 41.8398 16Z" fill="#CDCFDE"/>
</svg>
