<svg width="56" height="64" viewBox="0 0 56 64" fill="none" xmlns="http://www.w3.org/2000/svg">
<g clip-path="url(#clip0_208_18183)">
<path fill-rule="evenodd" clip-rule="evenodd" d="M6 0.000488281C3.79086 0.000488281 2 1.79135 2 4.00049V60.0001C2 62.2092 3.79086 64.0001 6 64.0001H49.8397C52.0488 64.0001 53.8397 62.2092 53.8397 60.0001V16.0005L37.8398 0.000585934H49.8679C49.8585 0.000520868 49.8491 0.000488281 49.8397 0.000488281H6Z" fill="#CCCCCC"/>
<path d="M19.9204 31.2001C19.9204 29.6002 20.2404 28.3202 20.5604 27.5202C20.8804 26.7202 21.5204 25.9202 22.3204 25.2802C23.1204 24.4802 23.9204 24.0002 25.0404 23.6802C26.0004 23.3602 26.9604 23.2002 28.0804 23.2002C30.3203 23.2002 32.0803 23.8402 33.6803 25.1202C35.1203 26.4002 35.9203 28.0002 35.9203 30.0802C35.9203 31.0401 35.6003 31.8401 35.2803 32.6401C34.9603 33.4401 34.1603 34.4001 32.8803 35.5201C31.6003 36.6401 31.1203 37.4401 30.6403 37.9201C30.1603 38.4001 30.0003 39.0401 29.6803 39.6801C29.3604 40.3201 29.5204 40.8001 29.5204 42.4001H26.3204C26.3204 40.8001 26.4804 40.0001 26.6404 39.2001C26.8004 38.4001 27.1204 37.7601 27.6004 37.1201C28.0804 36.4801 28.5604 35.6801 29.6803 34.5601C30.8003 33.4401 31.6003 32.6401 31.9203 32.1601C32.2403 31.6801 32.5603 30.8801 32.5603 29.7602C32.5603 28.6402 32.0803 27.8402 31.2803 27.0402C30.4803 26.2402 29.3604 25.7602 27.9204 25.7602C24.7204 25.7602 23.1204 28.0002 23.1204 31.2001H19.9204V31.2001ZM29.5204 48.8H26.3204V45.6001H29.5204V48.8Z" fill="white"/>
<path d="M41.8399 16L53.8398 16L37.8399 9.5876e-05L37.8399 12C37.8399 14.2091 39.6308 16 41.8399 16Z" fill="#EAEAEA"/>
</g>
<defs>
<clipPath id="clip0_208_18183">
<rect width="56" height="64" fill="white"/>
</clipPath>
</defs>
</svg>
