<svg width="56" height="64" viewBox="0 0 56 64" fill="none" xmlns="http://www.w3.org/2000/svg">
<path fill-rule="evenodd" clip-rule="evenodd" d="M6 0C3.79086 0 2 1.79086 2 4V60C2 62.2091 3.79086 64 6 64H49.84C52.0491 64 53.84 62.2091 53.84 60V4C53.84 3.98793 53.84 3.97587 53.8398 3.96382V16L37.8398 0H6Z" fill="#32BD7A"/>
<path d="M20.7363 48L27.9023 37.7144L35.1055 48H38.5203L29.5591 35.5296L37.8751 24H34.4603L27.9023 33.3444L21.3763 24H17.9627L26.2119 35.5296L17.3203 48H20.7363Z" fill="white"/>
<path d="M41.8398 16L53.8398 16L37.8398 -1.39876e-06L37.8398 12C37.8398 14.2091 39.6307 16 41.8398 16Z" fill="#EBFFEC"/>
</svg>
