<svg width="56" height="64" viewBox="0 0 56 64" fill="none" xmlns="http://www.w3.org/2000/svg">
<g clip-path="url(#clip0_208_18197)">
<path fill-rule="evenodd" clip-rule="evenodd" d="M6 0.000488281C3.79086 0.000488281 2 1.79135 2 4.00049V60.0001C2 62.2092 3.79086 64.0001 6 64.0001H49.8397C52.0488 64.0001 53.8397 62.2092 53.8397 60.0001V16.0005L37.8398 0.000585934H49.8679C49.8585 0.000520868 49.8491 0.000488281 49.8397 0.000488281H6Z" fill="#576A95"/>
<path d="M32.32 39.9688V48.6599C32.3199 48.9454 32.2635 49.228 32.154 49.4917C32.0445 49.7553 31.8841 49.9948 31.682 50.1963C31.2734 50.6039 30.7199 50.8328 30.1428 50.8327H25.6972C25.1202 50.8328 24.5667 50.6041 24.158 50.1967C23.9558 49.9951 23.7953 49.7555 23.6858 49.4917C23.5764 49.2279 23.52 48.9451 23.52 48.6595V39.9688H32.32V39.9688ZM30.1428 44.948H25.6972V49.3119H30.1428V44.948ZM32.2472 31.2776V35.6416H27.8748V31.2776H32.2472V31.2776ZM27.9292 0.640625V5.0406H32.32V9.44057H27.9288V13.5145H32.32V17.9145H27.9292V22.2605H32.32V26.6065H27.9292V30.952H23.52V26.6061H27.9108V22.2601H23.52V17.9145H27.9108V13.5145H23.52V9.11457H27.9108V5.0406H23.52V0.640625H27.9292Z" fill="white"/>
<path d="M41.8399 16L53.8398 16L37.8399 9.5876e-05L37.8399 12C37.8399 14.2091 39.6308 16 41.8399 16Z" fill="#BBC3D4"/>
</g>
<defs>
<clipPath id="clip0_208_18197">
<rect width="56" height="64" fill="white"/>
</clipPath>
</defs>
</svg>
